<mxfile host="app.diagrams.net" modified="2021-04-26T09:15:39.254Z" agent="5.0 (Windows NT 10.0; Win64; x64) AppleWebKit/537.36 (KHTML, like Gecko) Chrome/90.0.4430.85 Safari/537.36" etag="6hpFsCx-nVakcC6_3QE8" version="14.6.6" type="github">
  <diagram id="FBI3x-TtYNH0i6zkHDJK" name="Page-1">
    <mxGraphModel dx="835" dy="726" grid="1" gridSize="10" guides="1" tooltips="1" connect="1" arrows="1" fold="1" page="1" pageScale="1" pageWidth="827" pageHeight="1169" math="0" shadow="0">
      <root>
        <mxCell id="0" />
        <mxCell id="1" parent="0" />
        <mxCell id="sCtzTvHqMEyanIvGCmCK-1" value=":ActionListener" style="shape=umlLifeline;perimeter=lifelinePerimeter;whiteSpace=wrap;html=1;container=1;collapsible=0;recursiveResize=0;outlineConnect=0;" vertex="1" parent="1">
          <mxGeometry x="1150" y="180" width="100" height="560" as="geometry" />
        </mxCell>
        <mxCell id="sCtzTvHqMEyanIvGCmCK-2" value="" style="html=1;points=[];perimeter=orthogonalPerimeter;" vertex="1" parent="sCtzTvHqMEyanIvGCmCK-1">
          <mxGeometry x="45" y="80" width="10" height="450" as="geometry" />
        </mxCell>
        <mxCell id="sCtzTvHqMEyanIvGCmCK-39" value="" style="html=1;points=[];perimeter=orthogonalPerimeter;" vertex="1" parent="sCtzTvHqMEyanIvGCmCK-1">
          <mxGeometry x="50" y="460" width="10" height="20" as="geometry" />
        </mxCell>
        <mxCell id="sCtzTvHqMEyanIvGCmCK-40" value="resetUI()" style="edgeStyle=orthogonalEdgeStyle;html=1;align=left;spacingLeft=2;endArrow=block;rounded=0;entryX=1;entryY=0;" edge="1" target="sCtzTvHqMEyanIvGCmCK-39" parent="sCtzTvHqMEyanIvGCmCK-1">
          <mxGeometry relative="1" as="geometry">
            <mxPoint x="55" y="440" as="sourcePoint" />
            <Array as="points">
              <mxPoint x="85" y="440" />
            </Array>
          </mxGeometry>
        </mxCell>
        <mxCell id="sCtzTvHqMEyanIvGCmCK-3" value="" style="shape=umlLifeline;participant=umlActor;perimeter=lifelinePerimeter;whiteSpace=wrap;html=1;container=1;collapsible=0;recursiveResize=0;verticalAlign=top;spacingTop=36;outlineConnect=0;" vertex="1" parent="1">
          <mxGeometry x="940" y="180" width="20" height="560" as="geometry" />
        </mxCell>
        <mxCell id="sCtzTvHqMEyanIvGCmCK-4" value="Actionperformed(ActionEvent e)" style="html=1;verticalAlign=bottom;endArrow=block;entryX=0;entryY=0;" edge="1" parent="1" source="sCtzTvHqMEyanIvGCmCK-3" target="sCtzTvHqMEyanIvGCmCK-2">
          <mxGeometry x="-0.021" relative="1" as="geometry">
            <mxPoint x="1015" y="230" as="sourcePoint" />
            <mxPoint as="offset" />
          </mxGeometry>
        </mxCell>
        <mxCell id="sCtzTvHqMEyanIvGCmCK-5" value="" style="html=1;verticalAlign=bottom;endArrow=open;dashed=1;endSize=8;exitX=0;exitY=0.95;" edge="1" parent="1" source="sCtzTvHqMEyanIvGCmCK-2" target="sCtzTvHqMEyanIvGCmCK-3">
          <mxGeometry x="0.1021" y="-58" relative="1" as="geometry">
            <mxPoint x="1015" y="306" as="targetPoint" />
            <mxPoint as="offset" />
          </mxGeometry>
        </mxCell>
        <mxCell id="sCtzTvHqMEyanIvGCmCK-18" value="mItemStart: JMenuItem" style="shape=umlLifeline;perimeter=lifelinePerimeter;whiteSpace=wrap;html=1;container=1;collapsible=0;recursiveResize=0;outlineConnect=0;" vertex="1" parent="1">
          <mxGeometry x="1310" y="180" width="100" height="560" as="geometry" />
        </mxCell>
        <mxCell id="sCtzTvHqMEyanIvGCmCK-20" value="" style="html=1;points=[];perimeter=orthogonalPerimeter;" vertex="1" parent="sCtzTvHqMEyanIvGCmCK-18">
          <mxGeometry x="45" y="100" width="10" height="30" as="geometry" />
        </mxCell>
        <mxCell id="sCtzTvHqMEyanIvGCmCK-19" value="fileChooser: JFileChooser" style="shape=umlLifeline;perimeter=lifelinePerimeter;whiteSpace=wrap;html=1;container=1;collapsible=0;recursiveResize=0;outlineConnect=0;" vertex="1" parent="1">
          <mxGeometry x="1470" y="180" width="100" height="560" as="geometry" />
        </mxCell>
        <mxCell id="sCtzTvHqMEyanIvGCmCK-23" value="" style="html=1;points=[];perimeter=orthogonalPerimeter;" vertex="1" parent="sCtzTvHqMEyanIvGCmCK-19">
          <mxGeometry x="45" y="160" width="10" height="40" as="geometry" />
        </mxCell>
        <mxCell id="sCtzTvHqMEyanIvGCmCK-30" value="" style="html=1;points=[];perimeter=orthogonalPerimeter;" vertex="1" parent="sCtzTvHqMEyanIvGCmCK-19">
          <mxGeometry x="45" y="310" width="10" height="40" as="geometry" />
        </mxCell>
        <mxCell id="sCtzTvHqMEyanIvGCmCK-21" value="setEnabled(true)" style="html=1;verticalAlign=bottom;endArrow=block;entryX=0;entryY=0;exitX=1;exitY=0.053;exitDx=0;exitDy=0;exitPerimeter=0;" edge="1" target="sCtzTvHqMEyanIvGCmCK-20" parent="1" source="sCtzTvHqMEyanIvGCmCK-2">
          <mxGeometry relative="1" as="geometry">
            <mxPoint x="1285" y="280" as="sourcePoint" />
          </mxGeometry>
        </mxCell>
        <mxCell id="sCtzTvHqMEyanIvGCmCK-22" value="" style="html=1;verticalAlign=bottom;endArrow=open;dashed=1;endSize=8;exitX=0;exitY=0.95;" edge="1" source="sCtzTvHqMEyanIvGCmCK-20" parent="1" target="sCtzTvHqMEyanIvGCmCK-1">
          <mxGeometry relative="1" as="geometry">
            <mxPoint x="1285" y="356" as="targetPoint" />
          </mxGeometry>
        </mxCell>
        <mxCell id="sCtzTvHqMEyanIvGCmCK-24" value="showOpenDialog(null)" style="html=1;verticalAlign=bottom;endArrow=block;entryX=0;entryY=0;" edge="1" target="sCtzTvHqMEyanIvGCmCK-23" parent="1" source="sCtzTvHqMEyanIvGCmCK-2">
          <mxGeometry relative="1" as="geometry">
            <mxPoint x="1445" y="340" as="sourcePoint" />
          </mxGeometry>
        </mxCell>
        <mxCell id="sCtzTvHqMEyanIvGCmCK-25" value="result: int" style="html=1;verticalAlign=bottom;endArrow=open;dashed=1;endSize=8;exitX=0;exitY=0.95;" edge="1" source="sCtzTvHqMEyanIvGCmCK-23" parent="1" target="sCtzTvHqMEyanIvGCmCK-1">
          <mxGeometry relative="1" as="geometry">
            <mxPoint x="1445" y="416" as="targetPoint" />
          </mxGeometry>
        </mxCell>
        <mxCell id="sCtzTvHqMEyanIvGCmCK-26" value=":Palya" style="shape=umlLifeline;perimeter=lifelinePerimeter;whiteSpace=wrap;html=1;container=1;collapsible=0;recursiveResize=0;outlineConnect=0;" vertex="1" parent="1">
          <mxGeometry x="1610" y="180" width="100" height="560" as="geometry" />
        </mxCell>
        <mxCell id="sCtzTvHqMEyanIvGCmCK-27" value="" style="html=1;points=[];perimeter=orthogonalPerimeter;" vertex="1" parent="sCtzTvHqMEyanIvGCmCK-26">
          <mxGeometry x="45" y="250" width="10" height="40" as="geometry" />
        </mxCell>
        <mxCell id="sCtzTvHqMEyanIvGCmCK-28" value="Reset()" style="html=1;verticalAlign=bottom;endArrow=block;entryX=0;entryY=0;" edge="1" target="sCtzTvHqMEyanIvGCmCK-27" parent="1" source="sCtzTvHqMEyanIvGCmCK-1">
          <mxGeometry relative="1" as="geometry">
            <mxPoint x="1585" y="410" as="sourcePoint" />
          </mxGeometry>
        </mxCell>
        <mxCell id="sCtzTvHqMEyanIvGCmCK-29" value="" style="html=1;verticalAlign=bottom;endArrow=open;dashed=1;endSize=8;exitX=0;exitY=0.95;" edge="1" source="sCtzTvHqMEyanIvGCmCK-27" parent="1" target="sCtzTvHqMEyanIvGCmCK-2">
          <mxGeometry relative="1" as="geometry">
            <mxPoint x="1585" y="486" as="targetPoint" />
          </mxGeometry>
        </mxCell>
        <mxCell id="sCtzTvHqMEyanIvGCmCK-31" value="getSelectedFile()" style="html=1;verticalAlign=bottom;endArrow=block;entryX=0;entryY=0;" edge="1" target="sCtzTvHqMEyanIvGCmCK-30" parent="1" source="sCtzTvHqMEyanIvGCmCK-1">
          <mxGeometry relative="1" as="geometry">
            <mxPoint x="1445" y="490" as="sourcePoint" />
          </mxGeometry>
        </mxCell>
        <mxCell id="sCtzTvHqMEyanIvGCmCK-32" value="selectedFile: File" style="html=1;verticalAlign=bottom;endArrow=open;dashed=1;endSize=8;exitX=0;exitY=0.95;" edge="1" source="sCtzTvHqMEyanIvGCmCK-30" parent="1" target="sCtzTvHqMEyanIvGCmCK-1">
          <mxGeometry relative="1" as="geometry">
            <mxPoint x="1445" y="566" as="targetPoint" />
          </mxGeometry>
        </mxCell>
        <mxCell id="sCtzTvHqMEyanIvGCmCK-33" value="readerInstance: Reader" style="shape=umlLifeline;perimeter=lifelinePerimeter;whiteSpace=wrap;html=1;container=1;collapsible=0;recursiveResize=0;outlineConnect=0;" vertex="1" parent="1">
          <mxGeometry x="1740" y="180" width="100" height="570" as="geometry" />
        </mxCell>
        <mxCell id="sCtzTvHqMEyanIvGCmCK-34" value="" style="html=1;points=[];perimeter=orthogonalPerimeter;" vertex="1" parent="sCtzTvHqMEyanIvGCmCK-33">
          <mxGeometry x="45" y="380" width="10" height="30" as="geometry" />
        </mxCell>
        <mxCell id="sCtzTvHqMEyanIvGCmCK-35" value="loadPalyaFromFile(selectedFile)" style="html=1;verticalAlign=bottom;endArrow=block;entryX=0;entryY=0;" edge="1" target="sCtzTvHqMEyanIvGCmCK-34" parent="1" source="sCtzTvHqMEyanIvGCmCK-1">
          <mxGeometry relative="1" as="geometry">
            <mxPoint x="1715" y="545" as="sourcePoint" />
          </mxGeometry>
        </mxCell>
        <mxCell id="sCtzTvHqMEyanIvGCmCK-36" value="" style="html=1;verticalAlign=bottom;endArrow=open;dashed=1;endSize=8;exitX=0;exitY=0.95;" edge="1" source="sCtzTvHqMEyanIvGCmCK-34" parent="1" target="sCtzTvHqMEyanIvGCmCK-1">
          <mxGeometry relative="1" as="geometry">
            <mxPoint x="1715" y="621" as="targetPoint" />
          </mxGeometry>
        </mxCell>
        <mxCell id="sCtzTvHqMEyanIvGCmCK-41" value="opt" style="shape=umlFrame;whiteSpace=wrap;html=1;" vertex="1" parent="1">
          <mxGeometry x="1060" y="410" width="810" height="260" as="geometry" />
        </mxCell>
        <mxCell id="sCtzTvHqMEyanIvGCmCK-42" value="[result == APPROVE_OPTION]" style="text;html=1;strokeColor=none;fillColor=none;align=center;verticalAlign=middle;whiteSpace=wrap;rounded=0;" vertex="1" parent="1">
          <mxGeometry x="1090" y="490" width="70" height="20" as="geometry" />
        </mxCell>
        <mxCell id="sCtzTvHqMEyanIvGCmCK-43" value="pálya betöltése" style="shape=umlFrame;whiteSpace=wrap;html=1;width=80;height=30;" vertex="1" parent="1">
          <mxGeometry x="890" y="140" width="1060" height="610" as="geometry" />
        </mxCell>
      </root>
    </mxGraphModel>
  </diagram>
</mxfile>
